{
	"asset":{
		"generator":"Khronos glTF Blender I/O v5.1.19",
		"version":"2.0"
	},
	"scene":0,
	"scenes":[
		{
			"name":"Scene",
			"nodes":[
				0
			]
		}
	],
	"nodes":[
		{
			"mesh":0,
			"name":"Cube",
			"scale":[
				1,
				1,
				0.6165772080421448
			]
		}
	],
	"meshes":[
		{
			"name":"Cube.003",
			"primitives":[
				{
					"attributes":{
						"POSITION":0,
						"NORMAL":1,
						"TEXCOORD_0":2
					},
					"indices":3
				}
			]
		}
	],
	"accessors":[
		{
			"bufferView":0,
			"componentType":5126,
			"count":561,
			"max":[
				1.5711944103240967,
				14.222990989685059,
				0.6509391069412231
			],
			"min":[
				-1.5711944103240967,
				-5.3897552490234375,
				-0.6509391069412231
			],
			"type":"VEC3"
		},
		{
			"bufferView":1,
			"componentType":5126,
			"count":561,
			"type":"VEC3"
		},
		{
			"bufferView":2,
			"componentType":5126,
			"count":561,
			"type":"VEC2"
		},
		{
			"bufferView":3,
			"componentType":5123,
			"count":915,
			"type":"SCALAR"
		}
	],
	"bufferViews":[
		{
			"buffer":0,
			"byteLength":6732,
			"byteOffset":0,
			"target":34962
		},
		{
			"buffer":0,
			"byteLength":6732,
			"byteOffset":6732,
			"target":34962
		},
		{
			"buffer":0,
			"byteLength":4488,
			"byteOffset":13464,
			"target":34962
		},
		{
			"buffer":0,
			"byteLength":1830,
			"byteOffset":17952,
			"target":34963
		}
	],
	"buffers":[
		{
			"byteLength":19784,
			"uri":"Sword_test.bin"
		}
	]
}
